<?xml version="1.0" encoding="UTF-8"?><svg id="Layer_2" xmlns="http://www.w3.org/2000/svg" viewBox="0 0 200.93 213.44"><defs><style>.cls-1{fill:#fff;}</style></defs><g id="Layer_1-2"><g id="_lOlqZ"><g><path class="cls-1" d="M32.23,28.17l.15-.22c1,.17,2.02,.27,3,.53,2.56,.68,5.11,.83,7.64-.1,.59-.22,1.15-.52,1.73-.77,3.14-1.34,4.99-3.88,6.31-6.88,.42-.96,.12-1.3-.92-1.44-1.05-.15-2.1-.35-3.14-.55-.8-.16-.91-.57-.39-1.18,.15-.18,.33-.33,.47-.52,1.12-1.39,2.25-2.77,3.31-4.21,.21-.29,.31-.91,.14-1.17-.17-.26-.74-.32-1.14-.32-.46,0-.91,.2-1.38,.23-2.85,.19-5.7,.41-8.56,.5-1.22,.04-1.33-.33-.94-1.49,.73-2.2,1.43-4.4,2.04-6.64,.13-.47-.02-1.28-.34-1.52-.34-.25-1.05-.03-1.58,.07-.24,.04-.44,.29-.66,.43-2.37,1.46-4.73,2.95-7.13,4.35-.96,.56-1.38,.23-1.46-.87-.12-1.66-.19-3.33-.44-4.97-.24-1.55-1.14-1.86-2.38-.85-2.01,1.64-3.97,3.34-5.95,5.02-.74,.63-1.2,.51-1.54-.41-.37-1-.7-2-1.04-3.01-.45-1.34-1.25-1.59-2.31-.66-1.32,1.17-2.54,2.45-3.88,3.6-1.95,1.67-1.88,2.18-3.6-.19-.49-.67-1.04-.73-1.69-.17C2.78,8,.17,11.87,.01,17.05c-.09,3.09,.35,5.99,2.92,8.14,.84,.7,1.6,1.5,2.42,2.22,1.06,.94,1.06,1.21,.18,2.28-.69,.84-1.34,1.74-1.88,2.69-.82,1.46-.36,2.19,1.31,2.25,1.13,.04,2.27,.06,3.4,.03,1.34-.04,2.81,1.93,2.15,3.14-.83,1.51-1.53,3.09-2.42,4.56-1.38,2.28-2.62,4.61-3.51,7.14-1.01,2.86,.1,5.26,3,6.12,.79,.23,.92,.68,.62,1.36-.54,1.21-1.05,2.43-1.63,3.63-2.04,4.21-3.2,8.72-3.76,13.3-.97,7.83-.76,15.69,.61,23.49,.59,3.36,1.39,6.67,2.81,9.76,1.94,4.21,4.35,8.14,7.33,11.72,4.02,4.83,7.86,9.81,11.97,14.56,3.26,3.77,6.77,7.34,10.26,10.91,1.93,1.97,4.1,3.69,6.05,5.65,3.08,3.09,5.23,6.78,6.46,10.98,.37,1.27,.83,2.56,.91,3.87,.14,2.32,0,4.66,0,6.99,0,1.69,.05,3.38,.03,5.07,0,.79,.04,1.63-.21,2.35-.35,.99-.94,1.91-1.48,2.82-2.9,4.92-5.81,9.84-8.71,14.76-.82,1.39-1.24,1.51-2.77,.93-2.03-.76-4.13-1.02-6.27-.53-2.11,.48-2.6,1.58-1.41,3.11,.03,.04,0,.13,0,.34-.86,.2-1.74,.51-2.64,.58-3.71,.3-7.42,.59-11.13,.76-1.96,.09-3.37,.82-4.2,2.64-.43,.95-.34,1.32,.73,1.32,1.21,.01,2.43-.26,3.64-.29,5.29-.16,10.59-.27,15.88-.4,.23,0,.47,.02,.69,.07,.89,.19,1.11,.63,.7,1.44-.34,.68-.75,1.33-1.1,2.01-.62,1.2-1.53,2.32-1.2,3.8,.07,.31,.31,.76,.55,.82,.32,.07,.82-.07,1.07-.3,1.03-.98,1.94-2.09,2.99-3.06,2.24-2.07,4.42-4.25,6.85-6.08,2.45-1.85,5.45-2.5,8.47-2.91,.32-.04,.85-.24,.87-.4,.04-.34-.12-.82-.37-1.04-.4-.36-.94-.59-1.44-.81-.42-.19-.91-.23-1.31-.44-.88-.48-.95-1.1-.3-1.87,1.8-2.16,4.24-2.74,6.88-2.74,.97,0,1.27,.58,.96,1.5-.23,.66-.56,1.3-.68,1.97-.28,1.63,.56,2.47,2.11,1.93,1.62-.56,3.2-1.31,4.67-2.18,1.71-1.02,3.26-2.3,4.93-3.4,1.86-1.23,3.72-1.1,5.56,.24,.64,.47,1.34,.89,2.06,1.2,1.39,.6,2.19,0,1.73-1.45-.36-1.12-1.15-2.13-1.88-3.1-.77-1.03-2.05-1.84-2.43-2.97-.4-1.2-.17-2.7,.12-3.99,.24-1.07,1.53-.85,2.37-1.18,.09-.04,.21-.03,.28-.1,.38-.35,.74-.71,1.1-1.06-.39-.26-.77-.54-1.18-.78-.2-.11-.45-.13-.66-.22-.98-.4-1.99-.83-2-2.09,0-1.63,.09-3.26,.17-4.89,.17-3.09,.41-6.18,.5-9.27,.03-.84,.3-1.37,.98-1.66,2.91-1.23,5.86-2.38,8.76-3.61,2.78-1.18,5.54-2.43,8.3-3.67,1.57-.71,3.11-1.49,4.69-2.19,.64-.28,1.11-.09,1.18,.7,.06,.66,.07,1.35,.27,1.97,.14,.44,.56,.79,.86,1.17,.26,.33,.64,.61,.78,.98,.29,.77,.41,1.6,.68,2.38,.1,.3,.47,.77,.64,.74,.36-.07,.74-.35,.99-.65,.78-.91,1.36-2.03,2.27-2.76,2.35-1.9,3.8-4.41,5.18-6.99,.4-.74,.69-1.55,1.03-2.32l.3,.08c-.08,.46-.14,.92-.26,1.36-.11,.41-.29,.8-.43,1.2-.64,1.89-1.16,3.83-1.95,5.66-1.19,2.74-2.05,5.55-2.31,8.53-.03,.31,.19,.63,.3,.95,.31-.17,.72-.26,.9-.51,.83-1.16,1.67-2.32,2.37-3.56,2.59-4.53,5.13-9.09,7.69-13.63,.54-.96,1.1-1.91,1.72-2.81,.17-.25,.6-.31,.92-.46,.11,.32,.31,.64,.32,.96,.04,.83-.03,1.66,.01,2.49,.01,.24,.27,.47,.41,.71,.23-.17,.59-.29,.67-.51,.6-1.68,1.3-3.35,1.68-5.09,.6-2.73,.97-5.5,1.45-8.25,.04-.26,.22-.49,.33-.73,.31,.31,.44,.58,.45,.86,.07,2.23,.19,4.46,.15,6.69-.08,5.07-1.78,9.77-3.43,14.48-.8,2.28-1.72,4.51-2.55,6.78-.13,.35-.02,.78-.02,1.17l.29,.08c.5-.43,1.05-.81,1.48-1.3,2.33-2.56,4.7-5.08,6.91-7.74,1.71-2.07,3.29-4.27,4.75-6.52,.98-1.52,1.58-3.28,2.48-4.86,2.07-3.65,3.19-7.62,3.86-11.69,.87-5.31,.41-10.56-1.41-15.66-.32-.91-.59-1.84-.82-2.78-.06-.27,.12-.6,.2-.9,.24,.12,.56,.18,.72,.38,1.47,1.77,2.38,3.84,2.87,6.07,.93,4.27,.7,8.61,.57,12.94-.05,1.72-.02,3.45,.04,5.18,.01,.35,.3,.68,.55,1.2,1.79-2.88,1.95-6,3.09-8.8,.23,.24,.4,.48,.4,.71,0,1.76,.18,3.56-.11,5.27-.71,4.23-2.11,8.3-3.92,12.18-1.3,2.78-2.98,5.4-4.52,8.07-.77,1.32-1.65,2.58-2.4,3.91-.2,.35-.12,.87-.17,1.31,.42-.09,.93-.06,1.24-.3,1.06-.79,2.1-1.64,3.07-2.54,3.45-3.2,5.65-7.29,7.89-11.32,1.79-3.22,3.36-6.58,4.09-10.25,.47-2.37,1.12-4.72,1.4-7.11,.58-4.95-.7-9.74-1.68-14.52-.62-3.05-1.76-5.99-2.64-8.99-.12-.41-.23-.86-.18-1.27,.05-.38,.25-.94,.51-1.03,.34-.12,.94,.03,1.21,.29,.55,.52,1.03,1.14,1.41,1.8,2.13,3.66,3,7.74,3.59,11.85,.79,5.5-.35,10.87-1.54,16.21-.21,.96-.6,1.88-.95,2.81-.39,1.05-.84,2.07-1.23,3.12-.66,1.81-1.28,3.62-1.92,5.44-.35,1.01-.71,2.01-1.01,3.03-.07,.24,.06,.55,.1,.83,.25-.1,.59-.12,.75-.3,.95-1.11,2.01-2.17,2.77-3.4,2.23-3.65,4.66-7.2,6.21-11.24,.86-2.23,1.87-4.41,2.75-6.63,.91-2.28,1.75-4.58,2.62-6.87,.25-.66,.5-1.31,.77-2.03,.91,1.22,1.31,1.31,1.88,.49,2.39-3.48,4.19-7.24,5.31-11.32,.36-1.31,.77-2.61,1.12-3.92,.36-1.35,.7-2.7,.98-4.06,.41-1.99,.68-4,1.15-5.97,.43-1.77,.43-3.5,0-5.24-.5-2.02-1.11-4.02-1.56-6.06-.12-.55,.15-1.19,.26-1.79,.11-.6,.44-1.23,.35-1.79-.16-.93-.53-1.83-.9-2.71-.79-1.89-1.56-3.8-2.49-5.63-1.37-2.7-2.9-5.31-4.29-8-1.43-2.77-2.79-5.58-4.11-8.4-.35-.75-.43-1.63-.64-2.44l.31-.23c.36,.23,.81,.38,1.06,.7,2.15,2.58,4.4,5.09,6.36,7.81,3.5,4.85,6.24,10.09,7.84,15.92,1.4,5.11,2.15,10.3,2.26,15.57,.11,5.25-.55,10.44-1.64,15.57-.07,.35,.17,.77,.27,1.16,.35-.12,.76-.16,1.05-.37,2.55-1.87,3.59-4.66,4.3-7.54,.53-2.16,.66-4.41,1.06-6.6,.71-3.84,1.2-7.7,1.1-11.62-.07-2.56-.15-5.12-1.01-7.58-.65-1.85-1.28-3.7-1.9-5.55-.34-1.02-.23-1.21,.79-1.45,.9-.21,1.04-.57,.51-1.31-.14-.19-.31-.36-.41-.56-1.86-3.75-4.32-7.09-6.92-10.34-.24-.3-.38-.68-.57-1.03l.25-.27c.68,.3,1.37,.55,2.03,.9,2.84,1.51,5.1,3.72,7.07,6.2,1.5,1.9,2.86,3.92,4.18,5.96,2.29,3.54,3.84,7.46,5.01,11.46,1.14,3.88,1.8,7.91,2.7,11.86,1.35,5.97,1.51,12.05,1.11,18.1-.31,4.6-1.26,9.16-1.89,13.74-.06,.41,.13,.85,.2,1.27,.35-.25,.8-.43,1.04-.75,2.17-2.91,3.22-6.25,3.52-9.82,.27-3.25,.45-6.5,.66-9.76,.1-1.5,.11-3,.33-4.48,.09-.62,.49-1.36,.99-1.7,.77-.54,1.02-1.12,.99-2-.09-2.89-1.03-5.59-1.75-8.34-.29-1.11-.6-2.51-.17-3.45,.64-1.41,.62-2.63,.08-3.91-.59-1.41-1.31-2.77-2.01-4.13-.34-.66-.29-1.2,.31-1.67,.58-.47,.64-1.1,.36-1.72-.45-.96-.93-1.91-1.48-2.82-.68-1.1-1.46-2.14-2.17-3.23-.14-.22-.22-.55-.18-.8,.02-.11,.44-.15,.68-.2,.39-.09,.79-.16,1.18-.23-.19-.42-.28-.95-.59-1.25-1.56-1.45-3.19-2.82-4.76-4.26-.48-.44-.82-1.03-1.22-1.55l.22-.26c.28,.03,.58,.12,.84,.07,.33-.07,.71-.19,.92-.43,.09-.1-.12-.6-.31-.81-.71-.75-1.41-1.53-2.22-2.14-2.36-1.79-4.77-3.5-7.16-5.25-.5-.36-.71-.85-.32-1.38,.51-.69,.27-1.16-.3-1.61-.99-.77-1.97-1.57-2.99-2.31-.58-.42-.91-.85-.84-1.65,.04-.52-.19-1.23-.55-1.59-3.19-3.19-6.51-6.22-10.98-7.55-.79-.23-1.13-.7-.88-1.49,.24-.76-.15-1.21-.77-1.38-1.41-.38-2.83-.88-4.26-.93-4.56-.15-9.12-.11-13.69-.15-.43,0-.86-.08-1.29-.12,.15-.34,.29-.46,.46-.52,1.03-.37,2.07-.69,3.08-1.11,.29-.12,.47-.5,.7-.76-.25-.18-.48-.45-.76-.52-1.9-.49-3.79-1.06-5.72-1.37-4.4-.72-8.83-1.54-13.31-1.19-3.37,.27-6.75,.75-10.07,1.41-3.21,.64-6.2,2.03-9.03,3.65-2.3,1.32-4.59,2.73-6.63,4.41-3.58,2.96-6.71,6.42-9.17,10.36-2.07,3.31-3.84,6.83-5.56,10.34-.9,1.84-1.48,3.84-2.12,5.8-.7,2.15-1.55,4.3-1.88,6.52-.73,4.97-1.34,9.97-1.67,14.98-.23,3.57,.09,7.18,.13,10.77,0,.4-.08,.87-.3,1.19-.1,.14-.69,.07-.98-.08-2.49-1.26-4.95-2.58-7.44-3.85-3.22-1.64-6.47-3.23-9.69-4.89-2.06-1.06-3.99-2.3-5.07-4.48-1.56-3.13-1.94-6.61-2.93-9.91-.71-2.39-1.2-4.84-1.8-7.26-.95-3.82-2.4-7.47-4.17-10.97-1.06-2.1-2.2-4.18-3.48-6.16-1.72-2.65-3.62-5.18-5.43-7.77-1.92-2.75-4.2-5.16-6.87-7.2-.9-.69-1.79-1.39-2.68-2.08Z"/><path d="M32.23,28.17c.89,.7,1.78,1.4,2.68,2.08,2.67,2.03,4.95,4.44,6.87,7.2,1.81,2.59,3.71,5.12,5.43,7.77,1.28,1.97,2.42,4.05,3.48,6.16,1.77,3.5,3.22,7.15,4.17,10.97,.6,2.42,1.08,4.88,1.8,7.26,.99,3.3,1.37,6.78,2.93,9.91,1.08,2.18,3.01,3.42,5.07,4.48,3.22,1.65,6.47,3.24,9.69,4.89,2.49,1.27,4.95,2.58,7.44,3.85,.28,.14,.88,.22,.98,.08,.22-.31,.3-.78,.3-1.19-.05-3.59-.36-7.2-.13-10.77,.33-5.01,.94-10.01,1.67-14.98,.32-2.22,1.18-4.36,1.88-6.52,.64-1.96,1.22-3.96,2.12-5.8,1.73-3.51,3.49-7.02,5.56-10.34,2.46-3.94,5.59-7.4,9.17-10.36,2.04-1.68,4.33-3.09,6.63-4.41,2.83-1.62,5.82-3.01,9.03-3.65,3.32-.66,6.69-1.14,10.07-1.41,4.48-.35,8.91,.47,13.31,1.19,1.93,.32,3.82,.88,5.72,1.37,.28,.07,.51,.34,.76,.52-.23,.26-.41,.64-.7,.76-1.01,.42-2.05,.74-3.08,1.11-.17,.06-.31,.19-.46,.52,.43,.04,.86,.12,1.29,.12,4.56,.04,9.13,0,13.69,.15,1.43,.05,2.86,.55,4.26,.93,.62,.17,1.01,.61,.77,1.38-.25,.79,.1,1.26,.88,1.49,4.47,1.33,7.79,4.36,10.98,7.55,.37,.37,.6,1.07,.55,1.59-.07,.81,.26,1.23,.84,1.65,1.01,.74,1.99,1.54,2.99,2.31,.57,.45,.81,.92,.3,1.61-.39,.52-.17,1.01,.32,1.38,2.39,1.75,4.8,3.46,7.16,5.25,.82,.62,1.51,1.4,2.22,2.14,.19,.2,.41,.7,.31,.81-.21,.23-.59,.36-.92,.43-.27,.05-.56-.04-.84-.07l-.22,.26c.4,.52,.74,1.11,1.22,1.55,1.56,1.44,3.2,2.81,4.76,4.26,.31,.29,.4,.82,.59,1.25-.39,.08-.79,.15-1.18,.23-.24,.05-.66,.1-.68,.2-.05,.25,.03,.58,.18,.8,.71,1.09,1.49,2.13,2.17,3.23,.55,.9,1.03,1.85,1.48,2.82,.29,.62,.23,1.25-.36,1.72-.59,.48-.65,1.01-.31,1.67,.7,1.36,1.41,2.72,2.01,4.13,.54,1.28,.56,2.5-.08,3.91-.43,.94-.12,2.34,.17,3.45,.72,2.76,1.66,5.45,1.75,8.34,.03,.88-.23,1.46-.99,2-.5,.35-.9,1.09-.99,1.7-.22,1.48-.23,2.99-.33,4.48-.22,3.25-.39,6.51-.66,9.76-.3,3.58-1.35,6.91-3.52,9.82-.25,.33-.69,.51-1.04,.75-.07-.43-.25-.87-.2-1.27,.63-4.58,1.58-9.14,1.89-13.74,.4-6.05,.25-12.13-1.11-18.1-.9-3.96-1.56-7.98-2.7-11.86-1.18-4.01-2.72-7.92-5.01-11.46-1.32-2.04-2.68-4.06-4.18-5.96-1.97-2.48-4.23-4.7-7.07-6.2-.65-.35-1.35-.6-2.03-.9l-.25,.27c.19,.34,.33,.72,.57,1.03,2.6,3.25,5.06,6.6,6.92,10.34,.1,.2,.28,.37,.41,.56,.53,.74,.39,1.1-.51,1.31-1.02,.24-1.14,.43-.79,1.45,.63,1.85,1.25,3.71,1.9,5.55,.86,2.46,.95,5.02,1.01,7.58,.1,3.92-.39,7.77-1.1,11.62-.4,2.19-.53,4.44-1.06,6.6-.71,2.89-1.75,5.67-4.3,7.54-.29,.21-.69,.25-1.05,.37-.1-.39-.35-.81-.27-1.16,1.09-5.13,1.75-10.32,1.64-15.57-.11-5.27-.86-10.46-2.26-15.57-1.59-5.83-4.34-11.07-7.84-15.92-1.96-2.72-4.21-5.23-6.36-7.81-.26-.31-.71-.47-1.06-.7l-.31,.23c.21,.82,.29,1.69,.64,2.44,1.32,2.82,2.68,5.63,4.11,8.4,1.38,2.69,2.92,5.3,4.29,8,.93,1.83,1.69,3.74,2.49,5.63,.37,.88,.74,1.78,.9,2.71,.1,.56-.23,1.19-.35,1.79-.11,.6-.39,1.24-.26,1.79,.45,2.03,1.07,4.03,1.56,6.06,.43,1.74,.42,3.47,0,5.24-.47,1.97-.74,3.99-1.15,5.97-.28,1.36-.63,2.72-.98,4.06-.35,1.31-.76,2.61-1.12,3.92-1.12,4.08-2.92,7.84-5.31,11.32-.56,.82-.96,.73-1.88-.49-.27,.72-.52,1.38-.77,2.03-.87,2.29-1.71,4.59-2.62,6.87-.89,2.22-1.89,4.4-2.75,6.63-1.55,4.04-3.98,7.58-6.21,11.24-.76,1.24-1.81,2.29-2.77,3.4-.16,.18-.49,.21-.75,.3-.04-.28-.17-.58-.1-.83,.3-1.02,.66-2.02,1.01-3.03,.63-1.82,1.26-3.63,1.92-5.44,.38-1.05,.84-2.07,1.23-3.12,.34-.93,.73-1.85,.95-2.81,1.19-5.34,2.33-10.71,1.54-16.21-.59-4.11-1.46-8.19-3.59-11.85-.38-.66-.86-1.28-1.41-1.8-.28-.26-.87-.41-1.21-.29-.26,.09-.46,.66-.51,1.03-.05,.41,.06,.86,.18,1.27,.89,3,2.02,5.94,2.64,8.99,.98,4.78,2.26,9.57,1.68,14.52-.28,2.39-.93,4.74-1.4,7.11-.73,3.67-2.3,7.03-4.09,10.25-2.24,4.03-4.45,8.12-7.89,11.32-.97,.9-2.01,1.74-3.07,2.54-.31,.23-.82,.2-1.24,.3,.05-.44-.03-.95,.17-1.31,.75-1.33,1.64-2.59,2.4-3.91,1.55-2.67,3.22-5.28,4.52-8.07,1.81-3.88,3.21-7.94,3.92-12.18,.29-1.72,.1-3.51,.11-5.27,0-.23-.17-.46-.4-.71-1.14,2.81-1.3,5.93-3.09,8.8-.25-.52-.53-.86-.55-1.2-.06-1.72-.09-3.45-.04-5.18,.13-4.33,.36-8.67-.57-12.94-.49-2.23-1.39-4.3-2.87-6.07-.16-.19-.47-.25-.72-.38-.07,.3-.26,.63-.2,.9,.22,.94,.49,1.87,.82,2.78,1.82,5.1,2.28,10.35,1.41,15.66-.67,4.07-1.79,8.05-3.86,11.69-.9,1.58-1.5,3.34-2.48,4.86-1.46,2.26-3.04,4.45-4.75,6.52-2.2,2.66-4.58,5.18-6.91,7.74-.44,.48-.99,.87-1.48,1.3l-.29-.08c0-.39-.11-.82,.02-1.17,.82-2.27,1.75-4.5,2.55-6.78,1.65-4.7,3.35-9.41,3.43-14.48,.04-2.23-.08-4.46-.15-6.69,0-.28-.14-.55-.45-.86-.11,.24-.28,.48-.33,.73-.48,2.75-.85,5.53-1.45,8.25-.38,1.74-1.08,3.41-1.68,5.09-.08,.22-.44,.35-.67,.51-.14-.23-.4-.46-.41-.71-.04-.83,.03-1.66-.01-2.49-.02-.33-.21-.64-.32-.96-.31,.15-.75,.21-.92,.46-.62,.9-1.18,1.85-1.72,2.81-2.57,4.54-5.1,9.1-7.69,13.63-.71,1.24-1.54,2.4-2.37,3.56-.18,.26-.59,.35-.9,.51-.1-.32-.32-.64-.3-.95,.26-2.98,1.13-5.78,2.31-8.53,.79-1.83,1.31-3.77,1.95-5.66,.14-.4,.32-.79,.43-1.2,.12-.45,.17-.91,.26-1.36l-.3-.08c-.34,.78-.63,1.58-1.03,2.32-1.39,2.58-2.84,5.09-5.18,6.99-.91,.73-1.49,1.85-2.27,2.76-.25,.3-.63,.58-.99,.65-.17,.03-.53-.44-.64-.74-.27-.78-.39-1.61-.68-2.38-.14-.37-.52-.65-.78-.98-.3-.38-.72-.73-.86-1.17-.2-.62-.21-1.31-.27-1.97-.07-.79-.54-.99-1.18-.7-1.58,.7-3.12,1.48-4.69,2.19-2.76,1.24-5.51,2.48-8.3,3.67-2.91,1.24-5.85,2.39-8.76,3.61-.68,.29-.96,.82-.98,1.66-.09,3.09-.34,6.18-.5,9.27-.09,1.63-.18,3.26-.17,4.89,0,1.26,1.02,1.69,2,2.09,.22,.09,.47,.1,.66,.22,.41,.24,.79,.52,1.18,.78-.37,.36-.73,.71-1.1,1.06-.07,.06-.19,.06-.28,.1-.84,.33-2.13,.11-2.37,1.18-.29,1.29-.52,2.8-.12,3.99,.38,1.13,1.66,1.93,2.43,2.97,.72,.97,1.52,1.98,1.88,3.1,.46,1.45-.34,2.05-1.73,1.45-.73-.31-1.42-.73-2.06-1.2-1.84-1.33-3.71-1.47-5.56-.24-1.66,1.1-3.22,2.38-4.93,3.4-1.47,.88-3.06,1.62-4.67,2.18-1.55,.54-2.39-.3-2.11-1.93,.12-.68,.45-1.31,.68-1.97,.32-.92,0-1.5-.96-1.5-2.64,0-5.08,.58-6.88,2.74-.65,.78-.57,1.4,.3,1.87,.4,.22,.89,.26,1.31,.44,.5,.22,1.04,.45,1.44,.81,.25,.22,.4,.7,.37,1.04-.02,.17-.55,.36-.87,.4-3.02,.41-6.02,1.05-8.47,2.91-2.43,1.84-4.61,4.01-6.85,6.08-1.04,.97-1.96,2.07-2.99,3.06-.25,.23-.74,.38-1.07,.3-.24-.05-.48-.5-.55-.82-.33-1.48,.59-2.6,1.2-3.8,.35-.68,.76-1.32,1.1-2.01,.41-.81,.18-1.26-.7-1.44-.23-.05-.46-.08-.69-.07-5.29,.12-10.59,.24-15.88,.4-1.22,.04-2.43,.3-3.64,.29-1.07,0-1.17-.37-.73-1.32,.83-1.82,2.24-2.55,4.2-2.64,3.71-.17,7.42-.46,11.13-.76,.9-.07,1.79-.39,2.64-.58,0-.22,.03-.3,0-.34-1.18-1.53-.7-2.63,1.41-3.11,2.14-.49,4.24-.23,6.27,.53,1.53,.58,1.95,.46,2.77-.93,2.9-4.92,5.82-9.83,8.71-14.76,.54-.92,1.12-1.83,1.48-2.82,.25-.72,.2-1.56,.21-2.35,.01-1.69-.03-3.38-.03-5.07,0-2.33,.13-4.67,0-6.99-.08-1.3-.53-2.6-.91-3.87-1.23-4.2-3.38-7.88-6.46-10.98-1.94-1.95-4.12-3.68-6.05-5.65-3.49-3.57-6.99-7.14-10.26-10.91-4.11-4.75-7.96-9.73-11.97-14.56-2.98-3.58-5.39-7.51-7.33-11.72-1.42-3.09-2.22-6.4-2.81-9.76-1.37-7.8-1.58-15.66-.61-23.49,.57-4.58,1.73-9.09,3.76-13.3,.58-1.19,1.09-2.41,1.63-3.63,.3-.68,.17-1.12-.62-1.36-2.89-.86-4-3.26-3-6.12,.89-2.53,2.13-4.86,3.51-7.14,.89-1.47,1.59-3.05,2.42-4.56,.66-1.21-.81-3.17-2.15-3.14-1.13,.03-2.27,0-3.4-.03-1.68-.05-2.13-.79-1.31-2.25,.53-.95,1.19-1.84,1.88-2.69,.88-1.08,.89-1.34-.18-2.28-.82-.73-1.58-1.52-2.42-2.22C.36,23.03-.08,20.13,.01,17.05,.17,11.87,2.78,8,6.56,4.76c.65-.56,1.2-.5,1.69,.17,1.72,2.37,1.64,1.86,3.6,.19,1.34-1.15,2.56-2.43,3.88-3.6,1.05-.94,1.86-.68,2.31,.66,.34,1.01,.67,2.01,1.04,3.01,.34,.93,.8,1.04,1.54,.41,1.98-1.67,3.94-3.38,5.95-5.02,1.24-1.01,2.15-.7,2.38,.85,.25,1.64,.32,3.31,.44,4.97,.08,1.1,.49,1.43,1.46,.87,2.41-1.4,4.76-2.89,7.13-4.35,.23-.14,.43-.38,.66-.43,.53-.09,1.25-.31,1.58-.07,.32,.24,.47,1.05,.34,1.52-.61,2.23-1.31,4.44-2.04,6.64-.39,1.16-.28,1.54,.94,1.49,2.86-.1,5.71-.31,8.56-.5,.46-.03,.92-.23,1.38-.23,.4,0,.97,.07,1.14,.32,.17,.25,.07,.88-.14,1.17-1.06,1.43-2.2,2.81-3.31,4.21-.15,.18-.32,.34-.47,.52-.53,.61-.42,1.02,.39,1.18,1.04,.2,2.09,.4,3.14,.55,1.04,.14,1.34,.48,.92,1.44-1.32,3-3.17,5.54-6.31,6.88-.58,.25-1.14,.56-1.73,.77-2.53,.93-5.07,.78-7.64,.1-.98-.26-2-.36-3-.53l-.15,.22Zm34.23,140.25c0-1.25,0-2.55,0-3.85,0-.62-.27-.97-.95-1.03-2.16-.18-4.26,.89-5.12,2.89-.61,1.42-.89,2.97-1.45,4.41-.34,.89-.95,1.67-1.4,2.52-2.12,3.95-4.22,7.91-6.34,11.86-.74,1.38-1.53,2.72-2.25,4.1-.41,.79-.07,1.25,.78,1.14,.59-.08,1.21-.1,1.76-.3,.5-.18,.93-.56,1.37-.87,.5-.35,.93-.89,1.47-1.05,1.71-.53,3.47-.91,5.21-1.36,3.11-.8,5.08-2.74,5.78-5.89,.2-.87,.28-1.78,.36-2.67,.27-3.28,.51-6.57,.77-9.9Z"/><path class="cls-1" d="M66.47,168.42c-.26,3.33-.5,6.62-.77,9.9-.07,.89-.16,1.8-.36,2.67-.71,3.15-2.68,5.09-5.78,5.89-1.74,.45-3.5,.84-5.21,1.36-.55,.17-.98,.7-1.47,1.05-.44,.31-.87,.69-1.37,.87-.55,.2-1.17,.22-1.76,.3-.85,.11-1.19-.35-.78-1.14,.72-1.38,1.51-2.73,2.25-4.1,2.12-3.95,4.22-7.91,6.34-11.86,.45-.85,1.06-1.63,1.4-2.52,.56-1.44,.84-3,1.45-4.41,.86-2,2.95-3.07,5.12-2.89,.68,.06,.94,.41,.95,1.03,0,1.3,0,2.59,0,3.85Z"/></g></g></g></svg>